<svg xmlns="http://www.w3.org/2000/svg" viewBox="0 0 512 512" role="img" aria-label="EasyChat icon">
  <defs>
    <linearGradient id="easychat-gradient" x1="64" y1="80" x2="448" y2="432" gradientUnits="userSpaceOnUse">
      <stop offset="0" stop-color="#3b82f6"/>
      <stop offset="0.35" stop-color="#8b5cf6"/>
      <stop offset="0.68" stop-color="#ec4899"/>
      <stop offset="1" stop-color="#f43f5e"/>
    </linearGradient>
    <filter id="soft-shadow" x="-20%" y="-20%" width="140%" height="140%" color-interpolation-filters="sRGB">
      <feDropShadow dx="0" dy="18" stdDeviation="18" flood-color="#1e293b" flood-opacity="0.22"/>
    </filter>
  </defs>

  <g filter="url(#soft-shadow)">
    <path fill="url(#easychat-gradient)" d="M256 58c-112.1 0-203 75.5-203 168.7 0 54.2 30.7 102.4 78.4 133.2l-13 76.1c-1.9 11.4 10.6 19.5 20.1 13l76.4-52.1c13.3 2.3 27.1 3.6 41.1 3.6 112.1 0 203-75.5 203-168.7S368.1 58 256 58Z"/>
    <path fill="#fff" fill-opacity="0.94" d="M170.5 186.3c0-12.1 9.8-21.9 21.9-21.9h145.9c12.1 0 21.9 9.8 21.9 21.9s-9.8 21.9-21.9 21.9H192.4c-12.1 0-21.9-9.8-21.9-21.9Zm0 70c0-12.1 9.8-21.9 21.9-21.9h91.2c12.1 0 21.9 9.8 21.9 21.9s-9.8 21.9-21.9 21.9h-91.2c-12.1 0-21.9-9.8-21.9-21.9Z"/>
    <path fill="#fff" fill-opacity="0.9" d="M327.4 281.6c4.4-13 22.8-13 27.2 0l5.2 15.4c1.4 4.1 4.6 7.3 8.7 8.7l15.4 5.2c13 4.4 13 22.8 0 27.2l-15.4 5.2c-4.1 1.4-7.3 4.6-8.7 8.7l-5.2 15.4c-4.4 13-22.8 13-27.2 0l-5.2-15.4c-1.4-4.1-4.6-7.3-8.7-8.7l-15.4-5.2c-13-4.4-13-22.8 0-27.2l15.4-5.2c4.1-1.4 7.3-4.6 8.7-8.7l5.2-15.4Z"/>
  </g>
</svg>
